<svg width="57" height="57" viewBox="0 0 57 57" fill="none" xmlns="http://www.w3.org/2000/svg">
<path d="M28.8399 52.498C41.9059 52.498 52.498 41.9059 52.498 28.8399C52.498 15.7739 41.9059 5.18182 28.8399 5.18182C15.7739 5.18182 5.18182 15.7739 5.18182 28.8399C5.18182 41.9059 15.7739 52.498 28.8399 52.498Z" fill="#33333A"/>
<path d="M13.8044 20.6528C13.8044 18.0578 16.3331 15.9394 19.4795 15.8773H25.7018V45.1359C22.2238 44.4436 19.7904 43.1875 19.3593 41.7242L19.351 41.7159L14.0117 21.9047C13.879 21.5068 13.8044 21.0839 13.8044 20.6528Z" fill="white"/>
<path d="M31.9822 45.1398V15.8688H38.1382C41.3136 15.8978 43.8796 18.0244 43.8796 20.6443C43.8796 20.9304 43.8506 21.2081 43.7967 21.4776L43.6848 21.8714L38.362 41.7074V41.7157C37.9309 43.1832 35.4685 44.4392 31.9822 45.1398Z" fill="white"/>
<path d="M28.8399 25.7765C29.9 25.7765 30.7593 24.9171 30.7593 23.8571C30.7593 22.7971 29.9 21.9378 28.8399 21.9378C27.7799 21.9378 26.9206 22.7971 26.9206 23.8571C26.9206 24.9171 27.7799 25.7765 28.8399 25.7765Z" fill="white"/>
<path d="M28.8399 32.4258C29.9 32.4258 30.7593 31.5664 30.7593 30.5064C30.7593 29.4464 29.9 28.5871 28.8399 28.5871C27.7799 28.5871 26.9206 29.4464 26.9206 30.5064C26.9206 31.5664 27.7799 32.4258 28.8399 32.4258Z" fill="white"/>
</svg>
