<svg width="160" height="50" viewBox="0 0 160 50" fill="none" xmlns="http://www.w3.org/2000/svg">
<g clip-path="url(#clip0_123_3)">
<path d="M22.828 47.656C35.4356 47.656 45.656 37.4356 45.656 24.828C45.656 12.2204 35.4356 2 22.828 2C10.2204 2 0 12.2204 0 24.828C0 37.4356 10.2204 47.656 22.828 47.656Z" fill="white"/>
<path d="M8.32001 16.9283C8.32001 14.4243 10.76 12.3803 13.796 12.3203H19.8V40.5523C16.444 39.8843 14.096 38.6723 13.68 37.2603L13.672 37.2523L8.52001 18.1363C8.39201 17.7523 8.32001 17.3443 8.32001 16.9283Z" fill="#33333A"/>
<path d="M25.86 40.556V12.312H31.8C34.864 12.34 37.34 14.392 37.34 16.92C37.34 17.196 37.312 17.464 37.26 17.724L37.152 18.104L32.016 37.244V37.252C31.6 38.668 29.224 39.88 25.86 40.556Z" fill="#33333A"/>
<path d="M22.828 21.872C23.8508 21.872 24.68 21.0429 24.68 20.02C24.68 18.9972 23.8508 18.168 22.828 18.168C21.8052 18.168 20.976 18.9972 20.976 20.02C20.976 21.0429 21.8052 21.872 22.828 21.872Z" fill="#33333A"/>
<path d="M22.828 28.288C23.8508 28.288 24.68 27.4588 24.68 26.436C24.68 25.4132 23.8508 24.584 22.828 24.584C21.8052 24.584 20.976 25.4132 20.976 26.436C20.976 27.4588 21.8052 28.288 22.828 28.288Z" fill="#33333A"/>
<path d="M67.148 26.424H73.2C72.428 31.636 67.936 35.636 62.512 35.636C56.544 35.636 51.708 30.8 51.708 24.832C51.708 18.864 56.544 14.028 62.512 14.028C67.936 14.028 72.428 18.028 73.2 23.24H67.148C66.488 21.316 64.66 19.932 62.512 19.932C59.804 19.932 57.608 22.128 57.608 24.836C57.608 27.544 59.804 29.736 62.512 29.736C64.66 29.732 66.488 28.348 67.148 26.424Z" fill="white"/>
<path d="M89.06 20.528H83V35.632H89.06V20.528Z" fill="white"/>
<path d="M81.132 14.024H75.072V35.632H81.132V14.024Z" fill="white"/>
<path d="M160 19.724V36.252C160 36.356 160 36.464 159.992 36.564C159.992 36.608 159.988 36.648 159.988 36.692C159.988 36.732 159.984 36.768 159.98 36.808C159.98 36.84 159.976 36.872 159.972 36.904C159.972 36.944 159.968 36.984 159.964 37.02C159.96 37.084 159.952 37.144 159.944 37.204V37.208C159.936 37.26 159.932 37.312 159.924 37.364C159.892 37.592 159.852 37.82 159.8 38.044C159.784 38.108 159.772 38.168 159.756 38.228C159.744 38.272 159.732 38.316 159.72 38.364C159.712 38.396 159.704 38.428 159.692 38.46C159.64 38.64 159.58 38.816 159.516 38.992C159.504 39.032 159.488 39.068 159.472 39.104C159.428 39.224 159.376 39.34 159.324 39.46C159.308 39.5 159.288 39.536 159.272 39.576C159.252 39.62 159.232 39.664 159.208 39.708C159.184 39.756 159.16 39.808 159.132 39.856C159.108 39.9 159.088 39.944 159.06 39.988C159.04 40.024 159.02 40.06 159.004 40.092C158.956 40.18 158.904 40.268 158.852 40.356C158.82 40.408 158.784 40.464 158.752 40.516C158.732 40.548 158.712 40.58 158.692 40.608C158.668 40.644 158.648 40.676 158.624 40.708C158.536 40.84 158.44 40.968 158.34 41.096C158.32 41.124 158.3 41.148 158.28 41.172C158.248 41.212 158.22 41.248 158.188 41.284C158.108 41.38 158.028 41.472 157.944 41.564C157.944 41.568 157.94 41.568 157.936 41.572C157.892 41.616 157.852 41.664 157.808 41.708L157.804 41.712C157.76 41.756 157.72 41.8 157.676 41.84C157.632 41.884 157.588 41.928 157.54 41.972C157.496 42.016 157.452 42.056 157.408 42.096C157.404 42.1 157.396 42.108 157.392 42.112C157.308 42.188 157.224 42.264 157.136 42.336C157.032 42.424 156.924 42.508 156.816 42.588C156.764 42.624 156.716 42.664 156.664 42.7C156.616 42.736 156.564 42.772 156.516 42.804C156.508 42.812 156.496 42.82 156.484 42.824C156.44 42.856 156.396 42.884 156.348 42.912C156.296 42.948 156.24 42.98 156.184 43.012C156.08 43.076 155.972 43.14 155.86 43.2C155.792 43.236 155.724 43.272 155.656 43.308C155.608 43.332 155.556 43.356 155.508 43.38C155.408 43.428 155.304 43.476 155.204 43.52C155.128 43.552 155.052 43.584 154.972 43.616C154.84 43.668 154.704 43.716 154.568 43.764C154.524 43.78 154.476 43.796 154.432 43.808C154.328 43.84 154.22 43.872 154.112 43.9C154.104 43.9 154.092 43.904 154.084 43.908C154.036 43.92 153.988 43.932 153.936 43.944C153.884 43.956 153.828 43.968 153.772 43.984C153.768 43.984 153.764 43.984 153.764 43.984C153.708 43.996 153.652 44.008 153.6 44.02C153.544 44.032 153.488 44.04 153.432 44.052C153.316 44.072 153.204 44.088 153.088 44.104C153.048 44.108 153.004 44.116 152.964 44.12C152.892 44.128 152.82 44.136 152.744 44.14C152.524 44.156 152.3 44.168 152.076 44.168V44.2H147.264V38.152H150.972C152.568 38.152 153.872 36.864 153.944 35.284C153.9 35.312 153.856 35.336 153.812 35.364C152.968 35.86 152.004 36.172 150.968 36.236C150.832 36.244 150.696 36.248 150.556 36.248C149.76 36.248 149 36.104 148.3 35.84C148.216 35.808 148.136 35.776 148.056 35.744C148.052 35.744 148.044 35.74 148.04 35.736C146.696 35.16 145.588 34.14 144.9 32.86C144.464 32.048 144.196 31.128 144.148 30.156C144.144 30.048 144.14 29.94 144.14 29.832V19.724H150.2V27.656C150.2 27.74 150.204 27.824 150.216 27.908C150.248 28.156 150.332 28.384 150.452 28.592C150.58 28.82 150.76 29.016 150.968 29.168C151.276 29.396 151.66 29.528 152.072 29.528C152.764 29.528 153.372 29.152 153.692 28.592C153.812 28.384 153.892 28.156 153.924 27.908C153.936 27.824 153.94 27.74 153.94 27.656V19.724H160Z" fill="white"/>
<path d="M139.084 25.784L136.896 29.572H142.264V35.632H126.4L129.896 29.572L132.084 25.784H126.4V19.724H141.884H142.024H142.264L139.084 25.784Z" fill="white"/>
<path d="M86.028 20.048C87.7003 20.048 89.056 18.6923 89.056 17.02C89.056 15.3477 87.7003 13.992 86.028 13.992C84.3557 13.992 83 15.3477 83 17.02C83 18.6923 84.3557 20.048 86.028 20.048Z" fill="white"/>
<path d="M124.528 27.656C124.528 32.036 120.976 35.588 116.596 35.588V29.528C117.632 29.528 118.468 28.688 118.468 27.656C118.468 26.62 117.628 25.784 116.596 25.784C115.564 25.784 114.724 26.624 114.724 27.656V42.7H108.664V27.656C108.664 23.92 111.248 20.788 114.724 19.948C115.324 19.804 115.952 19.724 116.596 19.724C120.976 19.724 124.528 23.272 124.528 27.656Z" fill="white"/>
<path d="M106.792 27.656C106.792 32.036 103.24 35.588 98.86 35.588V29.528C99.896 29.528 100.732 28.688 100.732 27.656C100.732 26.62 99.892 25.784 98.86 25.784C97.828 25.784 96.988 26.624 96.988 27.656V42.7H90.928V27.656C90.928 23.92 93.512 20.788 96.988 19.948C97.588 19.804 98.216 19.724 98.86 19.724C103.24 19.724 106.792 23.272 106.792 27.656Z" fill="white"/>
</g>
<defs>
<clipPath id="clip0_123_3">
<rect width="160" height="50" fill="white"/>
</clipPath>
</defs>
</svg>
