<svg width="130" height="42" viewBox="0 0 130 42" fill="none" xmlns="http://www.w3.org/2000/svg">
<path d="M22.2636 38.5272C31.798 38.5272 39.5272 30.798 39.5272 21.2636C39.5272 11.7292 31.798 4 22.2636 4C12.7292 4 5 11.7292 5 21.2636C5 30.798 12.7292 38.5272 22.2636 38.5272Z" fill="#090B0F"/>
<path d="M11.291 15.2887C11.291 13.3951 13.1363 11.8493 15.4322 11.804H19.9727V33.1543C17.4348 32.6492 15.6591 31.7326 15.3445 30.6648L15.3385 30.6587L11.4423 16.2023C11.3455 15.9119 11.291 15.6033 11.291 15.2887Z" fill="white"/>
<path d="M24.5566 33.1573V11.7979H29.0487C31.3659 11.819 33.2384 13.3708 33.2384 15.2826C33.2384 15.4914 33.2172 15.694 33.1779 15.8907L33.0962 16.178L29.2121 30.6526V30.6587C28.8975 31.7295 27.1007 32.6461 24.5566 33.1573Z" fill="white"/>
<path d="M22.2639 19.0277C23.0374 19.0277 23.6644 18.4006 23.6644 17.6271C23.6644 16.8536 23.0374 16.2266 22.2639 16.2266C21.4903 16.2266 20.8633 16.8536 20.8633 17.6271C20.8633 18.4006 21.4903 19.0277 22.2639 19.0277Z" fill="white"/>
<path d="M22.2639 23.8795C23.0374 23.8795 23.6644 23.2525 23.6644 22.4789C23.6644 21.7054 23.0374 21.0784 22.2639 21.0784C21.4903 21.0784 20.8633 21.7054 20.8633 22.4789C20.8633 23.2525 21.4903 23.8795 22.2639 23.8795Z" fill="white"/>
<path d="M55.7819 22.4704H60.3587C59.7749 26.412 56.3778 29.4369 52.276 29.4369C47.7627 29.4369 44.1055 25.7797 44.1055 21.2664C44.1055 16.7532 47.7627 13.0959 52.276 13.0959C56.3778 13.0959 59.7749 16.1209 60.3587 20.0625H55.7819C55.2828 18.6075 53.9004 17.5608 52.276 17.5608C50.228 17.5608 48.5673 19.2216 48.5673 21.2695C48.5673 23.3174 50.228 24.9751 52.276 24.9751C53.9004 24.9721 55.2828 23.9254 55.7819 22.4704Z" fill="#090B0F"/>
<path d="M72.3504 18.0117H67.7676V29.4341H72.3504V18.0117Z" fill="#090B0F"/>
<path d="M66.3543 13.0928H61.7715V29.4338H66.3543V13.0928Z" fill="#090B0F"/>
<path d="M126 17.4041V29.9033C126 29.982 126 30.0636 125.994 30.1393C125.994 30.1725 125.991 30.2028 125.991 30.2361C125.991 30.2663 125.988 30.2935 125.985 30.3238C125.985 30.348 125.982 30.3722 125.979 30.3964C125.979 30.4266 125.976 30.4569 125.973 30.4841C125.97 30.5325 125.964 30.5779 125.958 30.6233V30.6263C125.952 30.6656 125.949 30.7049 125.942 30.7443C125.918 30.9167 125.888 31.0891 125.849 31.2585C125.837 31.3069 125.828 31.3523 125.815 31.3977C125.806 31.4309 125.797 31.4642 125.788 31.5005C125.782 31.5247 125.776 31.5489 125.767 31.5731C125.728 31.7092 125.682 31.8423 125.634 31.9754C125.625 32.0057 125.613 32.0329 125.601 32.0601C125.567 32.1509 125.528 32.2386 125.489 32.3294C125.477 32.3596 125.461 32.3868 125.449 32.4171C125.434 32.4504 125.419 32.4836 125.401 32.5169C125.383 32.5532 125.365 32.5925 125.344 32.6288C125.325 32.6621 125.31 32.6954 125.289 32.7287C125.274 32.7559 125.259 32.7831 125.247 32.8073C125.21 32.8739 125.171 32.9404 125.132 33.007C125.108 33.0463 125.08 33.0886 125.056 33.128C125.041 33.1522 125.026 33.1763 125.011 33.1975C124.993 33.2247 124.977 33.2489 124.959 33.2731C124.893 33.373 124.82 33.4698 124.745 33.5666C124.729 33.5877 124.714 33.6059 124.699 33.624C124.675 33.6543 124.654 33.6815 124.63 33.7087C124.569 33.7813 124.509 33.8509 124.445 33.9205C124.445 33.9235 124.442 33.9235 124.439 33.9265C124.406 33.9598 124.376 33.9961 124.342 34.0294L124.339 34.0324C124.306 34.0657 124.276 34.099 124.242 34.1292C124.209 34.1625 124.176 34.1958 124.14 34.229C124.106 34.2623 124.073 34.2926 124.04 34.3228C124.037 34.3258 124.031 34.3319 124.028 34.3349C123.964 34.3924 123.901 34.4499 123.834 34.5043C123.755 34.5709 123.674 34.6344 123.592 34.6949C123.553 34.7221 123.516 34.7524 123.477 34.7796C123.441 34.8068 123.401 34.834 123.365 34.8582C123.359 34.8643 123.35 34.8703 123.341 34.8734C123.308 34.8976 123.274 34.9187 123.238 34.9399C123.199 34.9671 123.156 34.9913 123.114 35.0155C123.035 35.0639 122.954 35.1123 122.869 35.1577C122.818 35.1849 122.766 35.2122 122.715 35.2394C122.679 35.2575 122.639 35.2757 122.603 35.2938C122.527 35.3301 122.449 35.3664 122.373 35.3997C122.316 35.4239 122.258 35.4481 122.198 35.4723C122.098 35.5116 121.995 35.5479 121.892 35.5842C121.859 35.5963 121.822 35.6084 121.789 35.6175C121.711 35.6417 121.629 35.6659 121.547 35.6871C121.541 35.6871 121.532 35.6901 121.526 35.6931C121.49 35.7022 121.453 35.7113 121.414 35.7204C121.375 35.7294 121.332 35.7385 121.29 35.7506C121.287 35.7506 121.284 35.7506 121.284 35.7506C121.242 35.7597 121.199 35.7688 121.16 35.7778C121.118 35.7869 121.075 35.793 121.033 35.802C120.945 35.8172 120.86 35.8293 120.773 35.8414C120.743 35.8444 120.709 35.8504 120.679 35.8535C120.625 35.8595 120.57 35.8656 120.513 35.8686C120.346 35.8807 120.177 35.8898 120.007 35.8898V35.914H116.368V31.3402H119.173C120.38 31.3402 121.366 30.3661 121.42 29.1713C121.387 29.1924 121.354 29.2106 121.32 29.2318C120.682 29.6069 119.953 29.8428 119.17 29.8912C119.067 29.8973 118.964 29.9003 118.858 29.9003C118.256 29.9003 117.681 29.7914 117.152 29.5917C117.088 29.5675 117.028 29.5433 116.967 29.5191C116.964 29.5191 116.958 29.5161 116.955 29.5131C115.939 29.0775 115.101 28.3061 114.581 27.3381C114.251 26.724 114.048 26.0283 114.012 25.2932C114.009 25.2116 114.006 25.1299 114.006 25.0482V17.4041H118.589V23.4026C118.589 23.4661 118.592 23.5297 118.601 23.5932C118.625 23.7807 118.689 23.9532 118.779 24.1105C118.876 24.2829 119.012 24.4311 119.17 24.5461C119.402 24.7185 119.693 24.8183 120.004 24.8183C120.528 24.8183 120.988 24.534 121.23 24.1105C121.32 23.9532 121.381 23.7807 121.405 23.5932C121.414 23.5297 121.417 23.4661 121.417 23.4026V17.4041H126Z" fill="#090B0F"/>
<path d="M110.182 21.9869L108.527 24.8516H112.587V29.4344H100.59L103.234 24.8516L104.888 21.9869H100.59V17.4041H112.3H112.405H112.587L110.182 21.9869Z" fill="#090B0F"/>
<path d="M70.0575 17.6482C71.3222 17.6482 72.3474 16.623 72.3474 15.3583C72.3474 14.0936 71.3222 13.0684 70.0575 13.0684C68.7928 13.0684 67.7676 14.0936 67.7676 15.3583C67.7676 16.623 68.7928 17.6482 70.0575 17.6482Z" fill="#090B0F"/>
<path d="M99.1748 23.4026C99.1748 26.715 96.4886 29.4012 93.1763 29.4012V24.8183C93.9598 24.8183 94.592 24.1831 94.592 23.4026C94.592 22.6191 93.9567 21.9869 93.1763 21.9869C92.3958 21.9869 91.7606 22.6222 91.7606 23.4026V34.7796H87.1777V23.4026C87.1777 20.5773 89.1319 18.2087 91.7606 17.5735C92.2143 17.4646 92.6893 17.4041 93.1763 17.4041C96.4886 17.4041 99.1748 20.0872 99.1748 23.4026Z" fill="#090B0F"/>
<path d="M85.7608 23.4026C85.7608 26.715 83.0746 29.4012 79.7622 29.4012V24.8183C80.5457 24.8183 81.1779 24.1831 81.1779 23.4026C81.1779 22.6191 80.5427 21.9869 79.7622 21.9869C78.9818 21.9869 78.3465 22.6222 78.3465 23.4026V34.7796H73.7637V23.4026C73.7637 20.5773 75.7178 18.2087 78.3465 17.5735C78.8003 17.4646 79.2752 17.4041 79.7622 17.4041C83.0746 17.4041 85.7608 20.0872 85.7608 23.4026Z" fill="#090B0F"/>
</svg>
