<svg width="200" height="60" viewBox="0 0 200 60" fill="none" xmlns="http://www.w3.org/2000/svg">
<g clip-path="url(#clip0_116_90)">
<path d="M28.535 58.07C44.2944 58.07 57.07 45.2944 57.07 29.535C57.07 13.7756 44.2944 1 28.535 1C12.7756 1 0 13.7756 0 29.535C0 45.2944 12.7756 58.07 28.535 58.07Z" fill="white"/>
<path d="M10.4 19.66C10.4 16.53 13.45 13.975 17.245 13.9H24.75V49.19C20.555 48.355 17.62 46.84 17.1 45.075L17.09 45.065L10.65 21.17C10.49 20.69 10.4 20.18 10.4 19.66Z" fill="#33333A"/>
<path d="M32.325 49.195V13.89H39.75C43.58 13.925 46.675 16.49 46.675 19.65C46.675 19.995 46.64 20.33 46.575 20.655L46.44 21.13L40.02 45.055V45.065C39.5 46.835 36.53 48.35 32.325 49.195Z" fill="#33333A"/>
<path d="M28.535 25.84C29.8135 25.84 30.85 24.8036 30.85 23.525C30.85 22.2465 29.8135 21.21 28.535 21.21C27.2564 21.21 26.22 22.2465 26.22 23.525C26.22 24.8036 27.2564 25.84 28.535 25.84Z" fill="#33333A"/>
<path d="M28.535 33.86C29.8135 33.86 30.85 32.8235 30.85 31.545C30.85 30.2665 29.8135 29.23 28.535 29.23C27.2564 29.23 26.22 30.2665 26.22 31.545C26.22 32.8235 27.2564 33.86 28.535 33.86Z" fill="#33333A"/>
<path d="M83.935 31.53H91.5C90.535 38.045 84.92 43.045 78.14 43.045C70.68 43.045 64.635 37 64.635 29.54C64.635 22.08 70.68 16.035 78.14 16.035C84.92 16.035 90.535 21.035 91.5 27.55H83.935C83.11 25.145 80.825 23.415 78.14 23.415C74.755 23.415 72.01 26.16 72.01 29.545C72.01 32.93 74.755 35.67 78.14 35.67C80.825 35.665 83.11 33.935 83.935 31.53Z" fill="white"/>
<path d="M111.325 24.16H103.75V43.04H111.325V24.16Z" fill="white"/>
<path d="M101.415 16.03H93.84V43.04H101.415V16.03Z" fill="white"/>
<path d="M200 23.155V43.815C200 43.945 200 44.08 199.99 44.205C199.99 44.26 199.985 44.31 199.985 44.365C199.985 44.415 199.98 44.46 199.975 44.51C199.975 44.55 199.97 44.59 199.965 44.63C199.965 44.68 199.96 44.73 199.955 44.775C199.95 44.855 199.94 44.93 199.93 45.005V45.01C199.92 45.075 199.915 45.14 199.905 45.205C199.865 45.49 199.815 45.775 199.75 46.055C199.73 46.135 199.715 46.21 199.695 46.285C199.68 46.34 199.665 46.395 199.65 46.455C199.64 46.495 199.63 46.535 199.615 46.575C199.55 46.8 199.475 47.02 199.395 47.24C199.38 47.29 199.36 47.335 199.34 47.38C199.285 47.53 199.22 47.675 199.155 47.825C199.135 47.875 199.11 47.92 199.09 47.97C199.065 48.025 199.04 48.08 199.01 48.135C198.98 48.195 198.95 48.26 198.915 48.32C198.885 48.375 198.86 48.43 198.825 48.485C198.8 48.53 198.775 48.575 198.755 48.615C198.695 48.725 198.63 48.835 198.565 48.945C198.525 49.01 198.48 49.08 198.44 49.145C198.415 49.185 198.39 49.225 198.365 49.26C198.335 49.305 198.31 49.345 198.28 49.385C198.17 49.55 198.05 49.71 197.925 49.87C197.9 49.905 197.875 49.935 197.85 49.965C197.81 50.015 197.775 50.06 197.735 50.105C197.635 50.225 197.535 50.34 197.43 50.455C197.43 50.46 197.425 50.46 197.42 50.465C197.365 50.52 197.315 50.58 197.26 50.635L197.255 50.64C197.2 50.695 197.15 50.75 197.095 50.8C197.04 50.855 196.985 50.91 196.925 50.965C196.87 51.02 196.815 51.07 196.76 51.12C196.755 51.125 196.745 51.135 196.74 51.14C196.635 51.235 196.53 51.33 196.42 51.42C196.29 51.53 196.155 51.635 196.02 51.735C195.955 51.78 195.895 51.83 195.83 51.875C195.77 51.92 195.705 51.965 195.645 52.005C195.635 52.015 195.62 52.025 195.605 52.03C195.55 52.07 195.495 52.105 195.435 52.14C195.37 52.185 195.3 52.225 195.23 52.265C195.1 52.345 194.965 52.425 194.825 52.5C194.74 52.545 194.655 52.59 194.57 52.635C194.51 52.665 194.445 52.695 194.385 52.725C194.26 52.785 194.13 52.845 194.005 52.9C193.91 52.94 193.815 52.98 193.715 53.02C193.55 53.085 193.38 53.145 193.21 53.205C193.155 53.225 193.095 53.245 193.04 53.26C192.91 53.3 192.775 53.34 192.64 53.375C192.63 53.375 192.615 53.38 192.605 53.385C192.545 53.4 192.485 53.415 192.42 53.43C192.355 53.445 192.285 53.46 192.215 53.48C192.21 53.48 192.205 53.48 192.205 53.48C192.135 53.495 192.065 53.51 192 53.525C191.93 53.54 191.86 53.55 191.79 53.565C191.645 53.59 191.505 53.61 191.36 53.63C191.31 53.635 191.255 53.645 191.205 53.65C191.115 53.66 191.025 53.67 190.93 53.675C190.655 53.695 190.375 53.71 190.095 53.71V53.75H184.08V46.19H188.715C190.71 46.19 192.34 44.58 192.43 42.605C192.375 42.64 192.32 42.67 192.265 42.705C191.21 43.325 190.005 43.715 188.71 43.795C188.54 43.805 188.37 43.81 188.195 43.81C187.2 43.81 186.25 43.63 185.375 43.3C185.27 43.26 185.17 43.22 185.07 43.18C185.065 43.18 185.055 43.175 185.05 43.17C183.37 42.45 181.985 41.175 181.125 39.575C180.58 38.56 180.245 37.41 180.185 36.195C180.18 36.06 180.175 35.925 180.175 35.79V23.155H187.75V33.07C187.75 33.175 187.755 33.28 187.77 33.385C187.81 33.695 187.915 33.98 188.065 34.24C188.225 34.525 188.45 34.77 188.71 34.96C189.095 35.245 189.575 35.41 190.09 35.41C190.955 35.41 191.715 34.94 192.115 34.24C192.265 33.98 192.365 33.695 192.405 33.385C192.42 33.28 192.425 33.175 192.425 33.07V23.155H200Z" fill="white"/>
<path d="M173.855 30.73L171.12 35.465H177.83V43.04H158L162.37 35.465L165.105 30.73H158V23.155H177.355H177.53H177.83L173.855 30.73Z" fill="white"/>
<path d="M107.535 23.56C109.625 23.56 111.32 21.8654 111.32 19.775C111.32 17.6846 109.625 15.99 107.535 15.99C105.445 15.99 103.75 17.6846 103.75 19.775C103.75 21.8654 105.445 23.56 107.535 23.56Z" fill="white"/>
<path d="M155.66 33.07C155.66 38.545 151.22 42.985 145.745 42.985V35.41C147.04 35.41 148.085 34.36 148.085 33.07C148.085 31.775 147.035 30.73 145.745 30.73C144.455 30.73 143.405 31.78 143.405 33.07V51.875H135.83V33.07C135.83 28.4 139.06 24.485 143.405 23.435C144.155 23.255 144.94 23.155 145.745 23.155C151.22 23.155 155.66 27.59 155.66 33.07Z" fill="white"/>
<path d="M133.49 33.07C133.49 38.545 129.05 42.985 123.575 42.985V35.41C124.87 35.41 125.915 34.36 125.915 33.07C125.915 31.775 124.865 30.73 123.575 30.73C122.285 30.73 121.235 31.78 121.235 33.07V51.875H113.66V33.07C113.66 28.4 116.89 24.485 121.235 23.435C121.985 23.255 122.77 23.155 123.575 23.155C129.05 23.155 133.49 27.59 133.49 33.07Z" fill="white"/>
</g>
<defs>
<clipPath id="clip0_116_90">
<rect width="200" height="60" fill="white"/>
</clipPath>
</defs>
</svg>
